<svg xmlns="http://www.w3.org/2000/svg" viewBox="0 0 100 100"><g id="Layer_2" data-name="Layer 2"><g id="Layer_1-2" data-name="Layer 1"><path d="M98.05,31.25a3.84,3.84,0,0,1,2,3.52V65.23a3.84,3.84,0,0,1-2,3.52L52.34,99.22a3.9,3.9,0,0,1-4.68,0L2,68.75A3.84,3.84,0,0,1,0,65.23V34.77a3.84,3.84,0,0,1,2-3.52L47.66.78a3.9,3.9,0,0,1,4.68,0ZM8.59,42.77V57.23L19.34,50ZM45.7,12.3,12.11,34.77l15,10L45.7,32.42Zm0,75.4V67.58L27.15,55.27l-15,10ZM50,60.16,65.23,50,50,39.84,34.77,50ZM54.3,12.3V32.42L72.85,44.73l15-10Zm0,75.4L87.89,65.23l-15-10L54.3,67.58ZM91.41,57.23V42.77L80.66,50Z"/></g></g></svg>