<svg xmlns="http://www.w3.org/2000/svg" viewBox="0 0 100 97.51"><g id="Layer_2" data-name="Layer 2"><g id="Layer_1-2" data-name="Layer 1"><path d="M49.39,0A51.78,51.78,0,0,1,74.8,6.45,48.1,48.1,0,0,1,100,49.19a50.38,50.38,0,0,1-9.38,29.94A47.9,47.9,0,0,1,66.13,97.38a2.65,2.65,0,0,1-2.52-.4,2.58,2.58,0,0,1-.91-2V78q0-6.45-3.43-9.27a57,57,0,0,0,11.09-2,18,18,0,0,0,8.67-6q3.43-5.25,3.43-14.32a14.71,14.71,0,0,0-1.41-6.65,23.26,23.26,0,0,0-3.83-5,16.33,16.33,0,0,0,1-4.84A22.7,22.7,0,0,0,76.81,21q-2-.62-5.64.8a57,57,0,0,0-5.65,2.83L62.9,26.41A45.61,45.61,0,0,0,50.1,24.6a43.58,43.58,0,0,0-12.6,1.81L34.88,24.6A46.31,46.31,0,0,0,29,21.77q-3.63-1.41-5.44-.8a18.64,18.64,0,0,0-1.41,8.87,11.64,11.64,0,0,0,.8,4.64A25.3,25.3,0,0,0,19.46,40a15.82,15.82,0,0,0-1.11,6.35q0,9.08,3.22,14.11A16.36,16.36,0,0,0,30,66.73a56.55,56.55,0,0,0,10.89,2A11,11,0,0,0,37.7,75.6a11.9,11.9,0,0,1-6.65,1.21c-3.5-.26-6.18-2.08-8.07-5.44a10.44,10.44,0,0,0-3.22-3.63,20,20,0,0,0-3-1.41l-1.41-.2c-1.48,0-2.25.23-2.32.7s.24,1,.91,1.52l1,.8a10.08,10.08,0,0,1,2.82,2.62,13.07,13.07,0,0,1,2,3.23l.8,1.61a8.17,8.17,0,0,0,3.83,4.64,14.92,14.92,0,0,0,5.85,1.81,21,21,0,0,0,5-.2l2.22-.2L37.7,95a2.58,2.58,0,0,1-.91,2,2.65,2.65,0,0,1-2.52.4A48.39,48.39,0,0,1,9.48,79.13,50.05,50.05,0,0,1,0,49.19a49.51,49.51,0,0,1,6.45-25A46.93,46.93,0,0,1,24.19,6.45,49.91,49.91,0,0,1,49.39,0Zm-32,67.94a.81.81,0,0,1,1-.1c.4.2.53.47.4.81s-.44.37-.91.1S17.2,68.21,17.34,67.94Zm2.22,1.62c.26-.27.6-.21,1,.2s.47.74.21,1-.61.2-1-.21S19.29,69.82,19.56,69.56Zm2,2.62a.89.89,0,0,1,.71-.1.87.87,0,0,1,.5.5c.41.54.41.94,0,1.21-.13.14-.3.14-.5,0a6.43,6.43,0,0,0-.71-.4C21.3,72.71,21.3,72.31,21.57,72.18ZM24,75a.62.62,0,0,1,.61-.1,1.5,1.5,0,0,1,.7.4,1.55,1.55,0,0,1,.41.71.59.59,0,0,1-.11.6c-.4.41-.87.34-1.41-.2a1.16,1.16,0,0,1-.4-.81A.83.83,0,0,1,24,75Zm3.23,2.62c.13-.54.54-.7,1.21-.5s1,.47.9.8a.93.93,0,0,1-.5.71.89.89,0,0,1-.81,0,2.74,2.74,0,0,1-.7-.51C27.12,77.92,27.08,77.76,27.22,77.62Zm6.25.81c0-.14-.1-.27-.3-.41a1.73,1.73,0,0,0-.91-.2c-.67,0-1,.27-1,.81s.37.77,1.11.7S33.47,79,33.47,78.43Zm2.62-1.21q1,0,1.11.6c.06.41-.24.74-.91,1a2.21,2.21,0,0,1-.71-.1c-.2-.07-.33-.3-.4-.71S35.42,77.35,36.09,77.22Z"/></g></g></svg>