<svg xmlns="http://www.w3.org/2000/svg" viewBox="0 0 100 100"><g id="Layer_2" data-name="Layer 2"><g id="Layer_1-2" data-name="Layer 1"><path d="M3.57,20.54A11.6,11.6,0,0,1,0,12.05,11.59,11.59,0,0,1,3.57,3.57,11.59,11.59,0,0,1,12.05,0a11.61,11.61,0,0,1,8.49,3.57,11.59,11.59,0,0,1,3.57,8.48,11.6,11.6,0,0,1-3.57,8.49,11.61,11.61,0,0,1-8.49,3.57A11.59,11.59,0,0,1,3.57,20.54ZM1.56,100V33.26H22.32V100Zm77.68,0V67.41q0-8-1.34-11.61c-1.64-4-4.83-6-9.6-6s-8.11,1.78-10,5.35Q56,59.15,56,67v33H35.49V33.26H55.36v9.15h.22A17.94,17.94,0,0,1,62.72,35a22,22,0,0,1,12.5-3.57q14.52,0,20.32,9.16Q100,48,100,63.39V100Z"/></g></g></svg>