<svg xmlns="http://www.w3.org/2000/svg" viewBox="0 0 100 100"><g id="Layer_2" data-name="Layer 2"><g id="Layer_1-2" data-name="Layer 1"><path d="M100,45.16q0,13.11-7.86,21.17-8.26,8.48-22.79,8.47-5.23,0-7.86-1.41a7.77,7.77,0,0,1-4-6.25,22,22,0,0,1-7.26,6.25,18.41,18.41,0,0,1-8.87,2.42q-8.86,0-13.81-5.65T22.58,55.24a33.55,33.55,0,0,1,3.73-15.93,28.26,28.26,0,0,1,10-11A24.93,24.93,0,0,1,49.8,24.39,18.16,18.16,0,0,1,57.66,26a11.74,11.74,0,0,1,5.24,4.63l.41-2.82a2.32,2.32,0,0,1,.9-1.51,2.54,2.54,0,0,1,1.52-.5h7.86a2.29,2.29,0,0,1,1.91.9A2.32,2.32,0,0,1,76,28.63l-5.65,30q-.8,3.22-.2,4.74c.4,1,1.55,1.51,3.43,1.51a15.41,15.41,0,0,0,11.49-5q5.25-5.64,5.24-14.72A33.14,33.14,0,0,0,84.68,26a32.55,32.55,0,0,0-14.32-12.1A48.21,48.21,0,0,0,50.1,9.68a39.3,39.3,0,0,0-20.26,5.44A40.73,40.73,0,0,0,15.12,29.84,39.1,39.1,0,0,0,9.68,50a39.1,39.1,0,0,0,5.44,20.16A40.73,40.73,0,0,0,29.84,84.88,39.1,39.1,0,0,0,50,90.32a39.85,39.85,0,0,0,23.79-7.66,1.89,1.89,0,0,1,1.61-.5,2.21,2.21,0,0,1,1.62.9l3,3.63a2.69,2.69,0,0,1,.5,1.92,2.27,2.27,0,0,1-.9,1.71,52,52,0,0,1-14,7.16A49,49,0,0,1,50,100a48.47,48.47,0,0,1-25-6.75A50.68,50.68,0,0,1,6.75,75,48.47,48.47,0,0,1,0,50,48.47,48.47,0,0,1,6.75,25,50.68,50.68,0,0,1,25,6.75,48.85,48.85,0,0,1,50.2,0,55.77,55.77,0,0,1,75.3,5.64,44.31,44.31,0,0,1,93.15,21.17,42.86,42.86,0,0,1,100,45.16ZM44.76,64.72q6,0,10.58-5.75a20.68,20.68,0,0,0,4.54-13.2,11.08,11.08,0,0,0-2.42-7.46,8.52,8.52,0,0,0-6.86-2.83,12.48,12.48,0,0,0-7.05,2.32,17.49,17.49,0,0,0-5.65,6.56,21.72,21.72,0,0,0-2.21,9.87q0,5,2.41,7.77A8.49,8.49,0,0,0,44.76,64.72Z"/></g></g></svg>